<svg xmlns="http://www.w3.org/2000/svg" version="1.1" xmlns:xlink="http://www.w3.org/1999/xlink" xmlns:svgjs="http://svgjs.com/svgjs" width="1440" height="560" preserveAspectRatio="none" viewBox="0 0 1440 560"><g mask="url(&quot;#SvgjsMask1004&quot;)" fill="none"><path d="M16.7 -38.9L81.65 -1.4L81.65 73.6L16.7 111.1L-48.25 73.6L-48.25 -1.4zM16.7 186.1L81.65 223.6L81.65 298.6L16.7 336.1L-48.25 298.6L-48.25 223.6zM81.65 523.6L146.61 561.1L146.61 636.1L81.65 673.6L16.7 636.1L16.7 561.1zM211.56 298.6L276.51 336.1L276.51 411.1L211.56 448.6L146.61 411.1L146.61 336.1zM406.42 -38.9L471.38 -1.4L471.38 73.6L406.42 111.1L341.47 73.6L341.47 -1.4zM471.38 523.6L536.33 561.1L536.33 636.1L471.38 673.6L406.42 636.1L406.42 561.1zM536.33 -38.9L601.28 -1.4L601.28 73.6L536.33 111.1L471.38 73.6L471.38 -1.4zM666.24 -38.9L731.19 -1.4L731.19 73.6L666.24 111.1L601.28 73.6L601.28 -1.4zM666.24 411.1L731.19 448.6L731.19 523.6L666.24 561.1L601.28 523.6L601.28 448.6zM861.1 298.6L926.05 336.1L926.05 411.1L861.1 448.6L796.14 411.1L796.14 336.1zM861.1 523.6L926.05 561.1L926.05 636.1L861.1 673.6L796.14 636.1L796.14 561.1zM926.05 -38.9L991.01 -1.4L991.01 73.6L926.05 111.1L861.1 73.6L861.1 -1.4zM991.01 73.6L1055.96 111.1L1055.96 186.1L991.01 223.6L926.05 186.1L926.05 111.1zM926.05 186.1L991.01 223.6L991.01 298.6L926.05 336.1L861.1 298.6L861.1 223.6zM926.05 411.1L991.01 448.6L991.01 523.6L926.05 561.1L861.1 523.6L861.1 448.6zM1120.91 523.6L1185.87 561.1L1185.87 636.1L1120.91 673.6L1055.96 636.1L1055.96 561.1zM1185.87 -38.9L1250.82 -1.4L1250.82 73.6L1185.87 111.1L1120.91 73.6L1120.91 -1.4zM1250.82 73.6L1315.77 111.1L1315.77 186.1L1250.82 223.6L1185.87 186.1L1185.87 111.1zM1185.87 186.1L1250.82 223.6L1250.82 298.6L1185.87 336.1L1120.91 298.6L1120.91 223.6zM1380.73 523.6L1445.68 561.1L1445.68 636.1L1380.73 673.6L1315.78 636.1L1315.78 561.1zM1445.68 411.1L1510.64 448.6L1510.64 523.6L1445.68 561.1L1380.73 523.6L1380.73 448.6z" stroke="rgba(7, 46, 91, 1)" stroke-width="2"></path><path d="M9.2 -38.9 a7.5 7.5 0 1 0 15 0 a7.5 7.5 0 1 0 -15 0zM74.15 -1.4 a7.5 7.5 0 1 0 15 0 a7.5 7.5 0 1 0 -15 0zM74.15 73.6 a7.5 7.5 0 1 0 15 0 a7.5 7.5 0 1 0 -15 0zM9.2 111.1 a7.5 7.5 0 1 0 15 0 a7.5 7.5 0 1 0 -15 0zM-55.75 73.6 a7.5 7.5 0 1 0 15 0 a7.5 7.5 0 1 0 -15 0zM-55.75 -1.4 a7.5 7.5 0 1 0 15 0 a7.5 7.5 0 1 0 -15 0zM9.2 186.1 a7.5 7.5 0 1 0 15 0 a7.5 7.5 0 1 0 -15 0zM74.15 223.6 a7.5 7.5 0 1 0 15 0 a7.5 7.5 0 1 0 -15 0zM74.15 298.6 a7.5 7.5 0 1 0 15 0 a7.5 7.5 0 1 0 -15 0zM9.2 336.1 a7.5 7.5 0 1 0 15 0 a7.5 7.5 0 1 0 -15 0zM-55.75 298.6 a7.5 7.5 0 1 0 15 0 a7.5 7.5 0 1 0 -15 0zM-55.75 223.6 a7.5 7.5 0 1 0 15 0 a7.5 7.5 0 1 0 -15 0zM74.15 523.6 a7.5 7.5 0 1 0 15 0 a7.5 7.5 0 1 0 -15 0zM139.11 561.1 a7.5 7.5 0 1 0 15 0 a7.5 7.5 0 1 0 -15 0zM139.11 636.1 a7.5 7.5 0 1 0 15 0 a7.5 7.5 0 1 0 -15 0zM74.15 673.6 a7.5 7.5 0 1 0 15 0 a7.5 7.5 0 1 0 -15 0zM9.2 636.1 a7.5 7.5 0 1 0 15 0 a7.5 7.5 0 1 0 -15 0zM9.2 561.1 a7.5 7.5 0 1 0 15 0 a7.5 7.5 0 1 0 -15 0zM204.06 298.6 a7.5 7.5 0 1 0 15 0 a7.5 7.5 0 1 0 -15 0zM269.01 336.1 a7.5 7.5 0 1 0 15 0 a7.5 7.5 0 1 0 -15 0zM269.01 411.1 a7.5 7.5 0 1 0 15 0 a7.5 7.5 0 1 0 -15 0zM204.06 448.6 a7.5 7.5 0 1 0 15 0 a7.5 7.5 0 1 0 -15 0zM139.11 411.1 a7.5 7.5 0 1 0 15 0 a7.5 7.5 0 1 0 -15 0zM139.11 336.1 a7.5 7.5 0 1 0 15 0 a7.5 7.5 0 1 0 -15 0zM398.92 -38.9 a7.5 7.5 0 1 0 15 0 a7.5 7.5 0 1 0 -15 0zM463.88 -1.4 a7.5 7.5 0 1 0 15 0 a7.5 7.5 0 1 0 -15 0zM463.88 73.6 a7.5 7.5 0 1 0 15 0 a7.5 7.5 0 1 0 -15 0zM398.92 111.1 a7.5 7.5 0 1 0 15 0 a7.5 7.5 0 1 0 -15 0zM333.97 73.6 a7.5 7.5 0 1 0 15 0 a7.5 7.5 0 1 0 -15 0zM333.97 -1.4 a7.5 7.5 0 1 0 15 0 a7.5 7.5 0 1 0 -15 0zM463.88 523.6 a7.5 7.5 0 1 0 15 0 a7.5 7.5 0 1 0 -15 0zM528.83 561.1 a7.5 7.5 0 1 0 15 0 a7.5 7.5 0 1 0 -15 0zM528.83 636.1 a7.5 7.5 0 1 0 15 0 a7.5 7.5 0 1 0 -15 0zM463.88 673.6 a7.5 7.5 0 1 0 15 0 a7.5 7.5 0 1 0 -15 0zM398.92 636.1 a7.5 7.5 0 1 0 15 0 a7.5 7.5 0 1 0 -15 0zM398.92 561.1 a7.5 7.5 0 1 0 15 0 a7.5 7.5 0 1 0 -15 0zM528.83 -38.9 a7.5 7.5 0 1 0 15 0 a7.5 7.5 0 1 0 -15 0zM593.78 -1.4 a7.5 7.5 0 1 0 15 0 a7.5 7.5 0 1 0 -15 0zM593.78 73.6 a7.5 7.5 0 1 0 15 0 a7.5 7.5 0 1 0 -15 0zM528.83 111.1 a7.5 7.5 0 1 0 15 0 a7.5 7.5 0 1 0 -15 0zM658.74 -38.9 a7.5 7.5 0 1 0 15 0 a7.5 7.5 0 1 0 -15 0zM723.69 -1.4 a7.5 7.5 0 1 0 15 0 a7.5 7.5 0 1 0 -15 0zM723.69 73.6 a7.5 7.5 0 1 0 15 0 a7.5 7.5 0 1 0 -15 0zM658.74 111.1 a7.5 7.5 0 1 0 15 0 a7.5 7.5 0 1 0 -15 0zM658.74 411.1 a7.5 7.5 0 1 0 15 0 a7.5 7.5 0 1 0 -15 0zM723.69 448.6 a7.5 7.5 0 1 0 15 0 a7.5 7.5 0 1 0 -15 0zM723.69 523.6 a7.5 7.5 0 1 0 15 0 a7.5 7.5 0 1 0 -15 0zM658.74 561.1 a7.5 7.5 0 1 0 15 0 a7.5 7.5 0 1 0 -15 0zM593.78 523.6 a7.5 7.5 0 1 0 15 0 a7.5 7.5 0 1 0 -15 0zM593.78 448.6 a7.5 7.5 0 1 0 15 0 a7.5 7.5 0 1 0 -15 0zM853.6 298.6 a7.5 7.5 0 1 0 15 0 a7.5 7.5 0 1 0 -15 0zM918.55 336.1 a7.5 7.5 0 1 0 15 0 a7.5 7.5 0 1 0 -15 0zM918.55 411.1 a7.5 7.5 0 1 0 15 0 a7.5 7.5 0 1 0 -15 0zM853.6 448.6 a7.5 7.5 0 1 0 15 0 a7.5 7.5 0 1 0 -15 0zM788.64 411.1 a7.5 7.5 0 1 0 15 0 a7.5 7.5 0 1 0 -15 0zM788.64 336.1 a7.5 7.5 0 1 0 15 0 a7.5 7.5 0 1 0 -15 0zM853.6 523.6 a7.5 7.5 0 1 0 15 0 a7.5 7.5 0 1 0 -15 0zM918.55 561.1 a7.5 7.5 0 1 0 15 0 a7.5 7.5 0 1 0 -15 0zM918.55 636.1 a7.5 7.5 0 1 0 15 0 a7.5 7.5 0 1 0 -15 0zM853.6 673.6 a7.5 7.5 0 1 0 15 0 a7.5 7.5 0 1 0 -15 0zM788.64 636.1 a7.5 7.5 0 1 0 15 0 a7.5 7.5 0 1 0 -15 0zM788.64 561.1 a7.5 7.5 0 1 0 15 0 a7.5 7.5 0 1 0 -15 0zM918.55 -38.9 a7.5 7.5 0 1 0 15 0 a7.5 7.5 0 1 0 -15 0zM983.51 -1.4 a7.5 7.5 0 1 0 15 0 a7.5 7.5 0 1 0 -15 0zM983.51 73.6 a7.5 7.5 0 1 0 15 0 a7.5 7.5 0 1 0 -15 0zM918.55 111.1 a7.5 7.5 0 1 0 15 0 a7.5 7.5 0 1 0 -15 0zM853.6 73.6 a7.5 7.5 0 1 0 15 0 a7.5 7.5 0 1 0 -15 0zM853.6 -1.4 a7.5 7.5 0 1 0 15 0 a7.5 7.5 0 1 0 -15 0zM1048.46 111.1 a7.5 7.5 0 1 0 15 0 a7.5 7.5 0 1 0 -15 0zM1048.46 186.1 a7.5 7.5 0 1 0 15 0 a7.5 7.5 0 1 0 -15 0zM983.51 223.6 a7.5 7.5 0 1 0 15 0 a7.5 7.5 0 1 0 -15 0zM918.55 186.1 a7.5 7.5 0 1 0 15 0 a7.5 7.5 0 1 0 -15 0zM983.51 298.6 a7.5 7.5 0 1 0 15 0 a7.5 7.5 0 1 0 -15 0zM853.6 223.6 a7.5 7.5 0 1 0 15 0 a7.5 7.5 0 1 0 -15 0zM983.51 448.6 a7.5 7.5 0 1 0 15 0 a7.5 7.5 0 1 0 -15 0zM983.51 523.6 a7.5 7.5 0 1 0 15 0 a7.5 7.5 0 1 0 -15 0zM1113.41 523.6 a7.5 7.5 0 1 0 15 0 a7.5 7.5 0 1 0 -15 0zM1178.37 561.1 a7.5 7.5 0 1 0 15 0 a7.5 7.5 0 1 0 -15 0zM1178.37 636.1 a7.5 7.5 0 1 0 15 0 a7.5 7.5 0 1 0 -15 0zM1113.41 673.6 a7.5 7.5 0 1 0 15 0 a7.5 7.5 0 1 0 -15 0zM1048.46 636.1 a7.5 7.5 0 1 0 15 0 a7.5 7.5 0 1 0 -15 0zM1048.46 561.1 a7.5 7.5 0 1 0 15 0 a7.5 7.5 0 1 0 -15 0zM1178.37 -38.9 a7.5 7.5 0 1 0 15 0 a7.5 7.5 0 1 0 -15 0zM1243.32 -1.4 a7.5 7.5 0 1 0 15 0 a7.5 7.5 0 1 0 -15 0zM1243.32 73.6 a7.5 7.5 0 1 0 15 0 a7.5 7.5 0 1 0 -15 0zM1178.37 111.1 a7.5 7.5 0 1 0 15 0 a7.5 7.5 0 1 0 -15 0zM1113.41 73.6 a7.5 7.5 0 1 0 15 0 a7.5 7.5 0 1 0 -15 0zM1113.41 -1.4 a7.5 7.5 0 1 0 15 0 a7.5 7.5 0 1 0 -15 0zM1308.27 111.1 a7.5 7.5 0 1 0 15 0 a7.5 7.5 0 1 0 -15 0zM1308.27 186.1 a7.5 7.5 0 1 0 15 0 a7.5 7.5 0 1 0 -15 0zM1243.32 223.6 a7.5 7.5 0 1 0 15 0 a7.5 7.5 0 1 0 -15 0zM1178.37 186.1 a7.5 7.5 0 1 0 15 0 a7.5 7.5 0 1 0 -15 0zM1243.32 298.6 a7.5 7.5 0 1 0 15 0 a7.5 7.5 0 1 0 -15 0zM1178.37 336.1 a7.5 7.5 0 1 0 15 0 a7.5 7.5 0 1 0 -15 0zM1113.41 298.6 a7.5 7.5 0 1 0 15 0 a7.5 7.5 0 1 0 -15 0zM1113.41 223.6 a7.5 7.5 0 1 0 15 0 a7.5 7.5 0 1 0 -15 0zM1373.23 523.6 a7.5 7.5 0 1 0 15 0 a7.5 7.5 0 1 0 -15 0zM1438.18 561.1 a7.5 7.5 0 1 0 15 0 a7.5 7.5 0 1 0 -15 0zM1438.18 636.1 a7.5 7.5 0 1 0 15 0 a7.5 7.5 0 1 0 -15 0zM1373.23 673.6 a7.5 7.5 0 1 0 15 0 a7.5 7.5 0 1 0 -15 0zM1308.28 636.1 a7.5 7.5 0 1 0 15 0 a7.5 7.5 0 1 0 -15 0zM1308.28 561.1 a7.5 7.5 0 1 0 15 0 a7.5 7.5 0 1 0 -15 0zM1438.18 411.1 a7.5 7.5 0 1 0 15 0 a7.5 7.5 0 1 0 -15 0zM1503.14 448.6 a7.5 7.5 0 1 0 15 0 a7.5 7.5 0 1 0 -15 0zM1503.14 523.6 a7.5 7.5 0 1 0 15 0 a7.5 7.5 0 1 0 -15 0zM1373.23 448.6 a7.5 7.5 0 1 0 15 0 a7.5 7.5 0 1 0 -15 0z" fill="rgba(7, 46, 91, 1)"></path><path d="M38.44 184.24L60.95 197.24L60.95 223.24L38.44 236.24L15.92 223.24L15.92 197.24zM15.92 223.24L38.44 236.24L38.44 262.24L15.92 275.24L-6.6 262.24L-6.6 236.24zM15.92 457.24L38.44 470.24L38.44 496.24L15.92 509.24L-6.6 496.24L-6.6 470.24zM60.95 -10.76L83.47 2.24L83.47 28.24L60.95 41.24L38.44 28.24L38.44 2.24zM60.95 301.24L83.47 314.24L83.47 340.24L60.95 353.24L38.44 340.24L38.44 314.24zM60.95 457.24L83.47 470.24L83.47 496.24L60.95 509.24L38.44 496.24L38.44 470.24zM128.51 28.24L151.02 41.24L151.02 67.24L128.51 80.24L105.99 67.24L105.99 41.24zM128.51 106.24L151.02 119.24L151.02 145.24L128.51 158.24L105.99 145.24L105.99 119.24zM128.51 184.24L151.02 197.24L151.02 223.24L128.51 236.24L105.99 223.24L105.99 197.24zM128.51 340.24L151.02 353.24L151.02 379.24L128.51 392.24L105.99 379.24L105.99 353.24zM173.54 28.24L196.06 41.24L196.06 67.24L173.54 80.24L151.02 67.24L151.02 41.24zM151.02 301.24L173.54 314.24L173.54 340.24L151.02 353.24L128.51 340.24L128.51 314.24zM173.54 340.24L196.06 353.24L196.06 379.24L173.54 392.24L151.02 379.24L151.02 353.24zM218.58 184.24L241.09 197.24L241.09 223.24L218.58 236.24L196.06 223.24L196.06 197.24zM196.06 223.24L218.58 236.24L218.58 262.24L196.06 275.24L173.54 262.24L173.54 236.24zM196.06 301.24L218.58 314.24L218.58 340.24L196.06 353.24L173.54 340.24L173.54 314.24zM196.06 379.24L218.58 392.24L218.58 418.24L196.06 431.24L173.54 418.24L173.54 392.24zM196.06 535.24L218.58 548.24L218.58 574.24L196.06 587.24L173.54 574.24L173.54 548.24zM263.61 184.24L286.13 197.24L286.13 223.24L263.61 236.24L241.09 223.24L241.09 197.24zM263.61 262.24L286.13 275.24L286.13 301.24L263.61 314.24L241.09 301.24L241.09 275.24zM263.61 340.24L286.13 353.24L286.13 379.24L263.61 392.24L241.09 379.24L241.09 353.24zM241.09 535.24L263.61 548.24L263.61 574.24L241.09 587.24L218.58 574.24L218.58 548.24zM286.13 67.24L308.64 80.24L308.64 106.24L286.13 119.24L263.61 106.24L263.61 80.24zM308.64 184.24L331.16 197.24L331.16 223.24L308.64 236.24L286.13 223.24L286.13 197.24zM308.64 496.24L331.16 509.24L331.16 535.24L308.64 548.24L286.13 535.24L286.13 509.24zM353.68 184.24L376.2 197.24L376.2 223.24L353.68 236.24L331.16 223.24L331.16 197.24zM331.16 223.24L353.68 236.24L353.68 262.24L331.16 275.24L308.64 262.24L308.64 236.24zM376.2 145.24L398.71 158.24L398.71 184.24L376.2 197.24L353.68 184.24L353.68 158.24zM376.2 223.24L398.71 236.24L398.71 262.24L376.2 275.24L353.68 262.24L353.68 236.24zM376.2 301.24L398.71 314.24L398.71 340.24L376.2 353.24L353.68 340.24L353.68 314.24zM376.2 379.24L398.71 392.24L398.71 418.24L376.2 431.24L353.68 418.24L353.68 392.24zM443.75 106.24L466.27 119.24L466.27 145.24L443.75 158.24L421.23 145.24L421.23 119.24zM421.23 145.24L443.75 158.24L443.75 184.24L421.23 197.24L398.71 184.24L398.71 158.24zM443.75 340.24L466.27 353.24L466.27 379.24L443.75 392.24L421.23 379.24L421.23 353.24zM443.75 496.24L466.27 509.24L466.27 535.24L443.75 548.24L421.23 535.24L421.23 509.24zM466.27 67.24L488.78 80.24L488.78 106.24L466.27 119.24L443.75 106.24L443.75 80.24zM466.27 145.24L488.78 158.24L488.78 184.24L466.27 197.24L443.75 184.24L443.75 158.24zM488.78 184.24L511.3 197.24L511.3 223.24L488.78 236.24L466.27 223.24L466.27 197.24zM466.27 223.24L488.78 236.24L488.78 262.24L466.27 275.24L443.75 262.24L443.75 236.24zM488.78 496.24L511.3 509.24L511.3 535.24L488.78 548.24L466.27 535.24L466.27 509.24zM511.3 -10.76L533.82 2.24L533.82 28.24L511.3 41.24L488.78 28.24L488.78 2.24zM511.3 223.24L533.82 236.24L533.82 262.24L511.3 275.24L488.78 262.24L488.78 236.24zM533.82 262.24L556.34 275.24L556.34 301.24L533.82 314.24L511.3 301.24L511.3 275.24zM511.3 379.24L533.82 392.24L533.82 418.24L511.3 431.24L488.78 418.24L488.78 392.24zM533.82 496.24L556.34 509.24L556.34 535.24L533.82 548.24L511.3 535.24L511.3 509.24zM578.85 28.24L601.37 41.24L601.37 67.24L578.85 80.24L556.34 67.24L556.34 41.24zM556.34 301.24L578.85 314.24L578.85 340.24L556.34 353.24L533.82 340.24L533.82 314.24zM556.34 379.24L578.85 392.24L578.85 418.24L556.34 431.24L533.82 418.24L533.82 392.24zM556.34 457.24L578.85 470.24L578.85 496.24L556.34 509.24L533.82 496.24L533.82 470.24zM601.37 223.24L623.89 236.24L623.89 262.24L601.37 275.24L578.85 262.24L578.85 236.24zM601.37 535.24L623.89 548.24L623.89 574.24L601.37 587.24L578.85 574.24L578.85 548.24zM646.4 67.24L668.92 80.24L668.92 106.24L646.4 119.24L623.89 106.24L623.89 80.24zM713.96 106.24L736.47 119.24L736.47 145.24L713.96 158.24L691.44 145.24L691.44 119.24zM758.99 262.24L781.51 275.24L781.51 301.24L758.99 314.24L736.47 301.24L736.47 275.24zM804.03 106.24L826.54 119.24L826.54 145.24L804.03 158.24L781.51 145.24L781.51 119.24zM781.51 145.24L804.03 158.24L804.03 184.24L781.51 197.24L758.99 184.24L758.99 158.24zM804.03 184.24L826.54 197.24L826.54 223.24L804.03 236.24L781.51 223.24L781.51 197.24zM804.03 340.24L826.54 353.24L826.54 379.24L804.03 392.24L781.51 379.24L781.51 353.24zM781.51 379.24L804.03 392.24L804.03 418.24L781.51 431.24L758.99 418.24L758.99 392.24zM804.03 496.24L826.54 509.24L826.54 535.24L804.03 548.24L781.51 535.24L781.51 509.24zM849.06 184.24L871.58 197.24L871.58 223.24L849.06 236.24L826.54 223.24L826.54 197.24zM894.09 28.24L916.61 41.24L916.61 67.24L894.09 80.24L871.58 67.24L871.58 41.24zM871.58 223.24L894.09 236.24L894.09 262.24L871.58 275.24L849.06 262.24L849.06 236.24zM894.09 340.24L916.61 353.24L916.61 379.24L894.09 392.24L871.58 379.24L871.58 353.24zM894.09 418.24L916.61 431.24L916.61 457.24L894.09 470.24L871.58 457.24L871.58 431.24zM871.58 457.24L894.09 470.24L894.09 496.24L871.58 509.24L849.06 496.24L849.06 470.24zM916.61 -10.76L939.13 2.24L939.13 28.24L916.61 41.24L894.09 28.24L894.09 2.24zM939.13 184.24L961.65 197.24L961.65 223.24L939.13 236.24L916.61 223.24L916.61 197.24zM916.61 223.24L939.13 236.24L939.13 262.24L916.61 275.24L894.09 262.24L894.09 236.24zM939.13 262.24L961.65 275.24L961.65 301.24L939.13 314.24L916.61 301.24L916.61 275.24zM939.13 340.24L961.65 353.24L961.65 379.24L939.13 392.24L916.61 379.24L916.61 353.24zM916.61 457.24L939.13 470.24L939.13 496.24L916.61 509.24L894.09 496.24L894.09 470.24zM961.65 -10.76L984.16 2.24L984.16 28.24L961.65 41.24L939.13 28.24L939.13 2.24zM984.16 184.24L1006.68 197.24L1006.68 223.24L984.16 236.24L961.65 223.24L961.65 197.24zM961.65 223.24L984.16 236.24L984.16 262.24L961.65 275.24L939.13 262.24L939.13 236.24zM961.65 379.24L984.16 392.24L984.16 418.24L961.65 431.24L939.13 418.24L939.13 392.24zM984.16 418.24L1006.68 431.24L1006.68 457.24L984.16 470.24L961.65 457.24L961.65 431.24zM1029.2 106.24L1051.72 119.24L1051.72 145.24L1029.2 158.24L1006.68 145.24L1006.68 119.24zM1006.68 457.24L1029.2 470.24L1029.2 496.24L1006.68 509.24L984.16 496.24L984.16 470.24zM1006.68 535.24L1029.2 548.24L1029.2 574.24L1006.68 587.24L984.16 574.24L984.16 548.24zM1051.72 -10.76L1074.23 2.24L1074.23 28.24L1051.72 41.24L1029.2 28.24L1029.2 2.24zM1074.23 262.24L1096.75 275.24L1096.75 301.24L1074.23 314.24L1051.72 301.24L1051.72 275.24zM1051.72 301.24L1074.23 314.24L1074.23 340.24L1051.72 353.24L1029.2 340.24L1029.2 314.24zM1051.72 457.24L1074.23 470.24L1074.23 496.24L1051.72 509.24L1029.2 496.24L1029.2 470.24zM1074.23 496.24L1096.75 509.24L1096.75 535.24L1074.23 548.24L1051.72 535.24L1051.72 509.24zM1096.75 -10.76L1119.27 2.24L1119.27 28.24L1096.75 41.24L1074.23 28.24L1074.23 2.24zM1096.75 301.24L1119.27 314.24L1119.27 340.24L1096.75 353.24L1074.23 340.24L1074.23 314.24zM1119.27 340.24L1141.78 353.24L1141.78 379.24L1119.27 392.24L1096.75 379.24L1096.75 353.24zM1119.27 418.24L1141.78 431.24L1141.78 457.24L1119.27 470.24L1096.75 457.24L1096.75 431.24zM1119.27 496.24L1141.78 509.24L1141.78 535.24L1119.27 548.24L1096.75 535.24L1096.75 509.24zM1164.3 28.24L1186.82 41.24L1186.82 67.24L1164.3 80.24L1141.79 67.24L1141.79 41.24zM1141.79 535.24L1164.3 548.24L1164.3 574.24L1141.79 587.24L1119.27 574.24L1119.27 548.24zM1209.34 28.24L1231.85 41.24L1231.85 67.24L1209.34 80.24L1186.82 67.24L1186.82 41.24zM1186.82 301.24L1209.34 314.24L1209.34 340.24L1186.82 353.24L1164.3 340.24L1164.3 314.24zM1186.82 457.24L1209.34 470.24L1209.34 496.24L1186.82 509.24L1164.3 496.24L1164.3 470.24zM1209.34 496.24L1231.85 509.24L1231.85 535.24L1209.34 548.24L1186.82 535.24L1186.82 509.24zM1254.37 262.24L1276.89 275.24L1276.89 301.24L1254.37 314.24L1231.85 301.24L1231.85 275.24zM1254.37 418.24L1276.89 431.24L1276.89 457.24L1254.37 470.24L1231.85 457.24L1231.85 431.24zM1231.85 535.24L1254.37 548.24L1254.37 574.24L1231.85 587.24L1209.34 574.24L1209.34 548.24zM1276.89 145.24L1299.41 158.24L1299.41 184.24L1276.89 197.24L1254.37 184.24L1254.37 158.24zM1299.41 340.24L1321.92 353.24L1321.92 379.24L1299.41 392.24L1276.89 379.24L1276.89 353.24zM1299.41 418.24L1321.92 431.24L1321.92 457.24L1299.41 470.24L1276.89 457.24L1276.89 431.24zM1276.89 535.24L1299.41 548.24L1299.41 574.24L1276.89 587.24L1254.37 574.24L1254.37 548.24zM1344.44 28.24L1366.96 41.24L1366.96 67.24L1344.44 80.24L1321.92 67.24L1321.92 41.24zM1344.44 106.24L1366.96 119.24L1366.96 145.24L1344.44 158.24L1321.92 145.24L1321.92 119.24zM1366.96 -10.76L1389.48 2.24L1389.48 28.24L1366.96 41.24L1344.44 28.24L1344.44 2.24zM1389.48 184.24L1411.99 197.24L1411.99 223.24L1389.48 236.24L1366.96 223.24L1366.96 197.24zM1389.48 340.24L1411.99 353.24L1411.99 379.24L1389.48 392.24L1366.96 379.24L1366.96 353.24zM1389.48 496.24L1411.99 509.24L1411.99 535.24L1389.48 548.24L1366.96 535.24L1366.96 509.24zM1366.96 535.24L1389.48 548.24L1389.48 574.24L1366.96 587.24L1344.44 574.24L1344.44 548.24zM1411.99 -10.76L1434.51 2.24L1434.51 28.24L1411.99 41.24L1389.48 28.24L1389.48 2.24zM1411.99 145.24L1434.51 158.24L1434.51 184.24L1411.99 197.24L1389.48 184.24L1389.48 158.24zM1411.99 223.24L1434.51 236.24L1434.51 262.24L1411.99 275.24L1389.48 262.24L1389.48 236.24zM1434.51 418.24L1457.03 431.24L1457.03 457.24L1434.51 470.24L1411.99 457.24L1411.99 431.24z" stroke="rgba(6, 80, 156, 0.93)" stroke-width="2"></path></g><defs><mask id="SvgjsMask1004"><rect width="1440" height="560" fill="#ffffff"></rect></mask></defs></svg>