<svg xmlns="http://www.w3.org/2000/svg" version="1.1" xmlns:xlink="http://www.w3.org/1999/xlink" xmlns:svgjs="http://svgjs.dev/svgjs" width="128" height="128" viewBox="0 0 128 128"><g transform="matrix(0.8046875,0,0,0.8046875,12.760752631578946,19.454164915291656)"><svg viewBox="0 0 95 83" data-background-color="#0c1d36" preserveAspectRatio="xMidYMid meet" height="111" width="128" xmlns="http://www.w3.org/2000/svg" xmlns:xlink="http://www.w3.org/1999/xlink"><g id="tight-bounds" transform="matrix(1,0,0,1,-0.24049999999999727,-0.10623179043632547)"><svg viewBox="0 0 95.481 83.21246358087265" height="83.21246358087265" width="95.481"><g><svg viewBox="0 0 95.481 83.21246358087265" height="83.21246358087265" width="95.481"><g><svg viewBox="0 0 95.481 83.21246358087265" height="83.21246358087265" width="95.481"><g><svg viewBox="0 0 95.481 83.21246358087265" height="83.21246358087265" width="95.481"><g><svg viewBox="0 0 95.481 83.21246358087265" height="83.21246358087265" width="95.481"><g><svg viewBox="0 0 95.481 83.21246358087265" height="83.21246358087265" width="95.481"><g><svg xmlns="http://www.w3.org/2000/svg" xmlns:xlink="http://www.w3.org/1999/xlink" version="1.0" x="0" y="0" viewBox="1.118 4.1185758 47.921 41.76353899999999" enable-background="new 0 0 50 50" xml:space="preserve" height="83.21246358087265" width="95.481" class="icon-icon-0" data-fill-palette-color="accent" id="icon-0"><g fill="#f9f9f9" data-fill-palette-color="accent"><g fill="#f9f9f9" data-fill-palette-color="accent"><polygon fill="#072E5B" points="10.821,24.951 21,32.193 21,39.035 1.118,24.891 21,11.118 21,17.9   " data-fill-palette-color="accent"></polygon></g><g fill="#f9f9f9" data-fill-palette-color="accent"><polygon fill="#072E5B" points="49.039,25.277 35.815,16.063 34.219,21.712 39.475,25.338 31.411,30.97 29,38.79 29,39.424   " data-fill-palette-color="accent"></polygon></g><rect x="25.577" y="3.983" transform="matrix(0.9606 0.278 -0.278 0.9606 8.0575 -6.8179)" fill="#072E5B" width="4.981" height="42.035" data-fill-palette-color="accent"></rect></g></svg></g></svg></g></svg></g></svg></g></svg></g></svg></g><defs></defs></svg><rect width="95.481" height="83.21246358087265" fill="none" stroke="none" visibility="hidden"></rect></g></svg></g></svg>